HIERARCHY
ROOT Hips
{
    OFFSET 0 0 0
    CHANNELS 6 Xposition Yposition Zposition Zrotation Xrotation Yrotation 
    JOINT LeftHip
    {
        OFFSET 3.3 0 0
        CHANNELS 3 Zrotation Xrotation Yrotation 
        JOINT LeftKnee
        {
            OFFSET 0 -17.8 0
            CHANNELS 1 Xrotation 
            End Site
            {
                OFFSET 0 -16.03 0
            }
        }
    }
    JOINT RightHip
    {
        OFFSET -3.3 0 0
        CHANNELS 3 Zrotation Xrotation Yrotation 
        JOINT RightKnee
        {
            OFFSET 0 -17.7 0
            CHANNELS 1 Xrotation 
            End Site
            {
                OFFSET 0 -16.1 0
            }
        }
    }
    JOINT Chest
    {
        OFFSET 0 4.41 0
        CHANNELS 3 Zrotation Xrotation Yrotation 
        JOINT Neck
        {
            OFFSET 0 16.76 0
            CHANNELS 2 Zrotation Xrotation 
            JOINT Head
            {
                OFFSET 0 4.4 0
                CHANNELS 3 Zrotation Xrotation Yrotation 
                End Site
                {
                    OFFSET 0 3.31 0
                }
            }
        }
        JOINT LeftCollar
        {
            OFFSET 1.01 14.58 1.68
            CHANNELS 2 Zrotation Yrotation 
            JOINT LeftShoulder
            {
                OFFSET 5.89 0 0
                CHANNELS 3 Zrotation Xrotation Yrotation 
                JOINT LeftElbow
                {
                    OFFSET 0 -11.63 0
                    CHANNELS 1 Xrotation 
                    End Site
                    {
                        OFFSET 0 -9.24 0
                    }
                }
            }
        }
        JOINT RightCollar
        {
            OFFSET -1.01 14.58 1.68
            CHANNELS 2 Zrotation Yrotation 
            JOINT RightShoulder
            {
                OFFSET -6.39 0 0
                CHANNELS 3 Zrotation Xrotation Yrotation 
                JOINT RightElbow
                {
                    OFFSET 0 -11.08 0
                    CHANNELS 1 Xrotation 
                    End Site
                    {
                        OFFSET 0 -9.13 0
                    }
                }
            }
        }
    }
}
MOTION
Frames:  39
Frame Time: 0.033333
2.68771	35.0113	106.722	-3.04833	-6.83167	-3.83916	1.19317	-22.2839	-6.24342	5.56813	4.5189	20.7677	1.25258	24.4419	2.9341	3.61083	10.8529	4.67116	40.5498	-5.88991	-32.1012	0	-18.3846	26.3303	40.499	12.3094	-67.6306	-24.7203	21.7246	-21.6252	-39.556	-29.8207	29.7771	-44.2854	
2.8661	35.7332	108.788	-1.80458	-7.67022	-2.69182	-0.976249	-20.6431	-4.00661	11.3648	3.28317	19.2928	0.532368	28.4042	1.29135	3.7259	10.8526	5.41556	40.1535	-6.07393	-31.9768	0	-17.5406	26.1819	40.8674	13.7975	-64.8521	-24.0513	21.8016	-21.8582	-39.2985	-27.7796	29.4887	-45.6561	
3.05125	36.2563	110.89	-0.352034	-8.17655	-1.68905	-3.00818	-18.6848	-2.61273	15.8543	1.79931	16.9421	-0.626733	34.3509	-0.414411	3.71596	10.5344	5.41069	39.7284	-6.13387	-31.8554	0	-16.8276	26.1773	40.7007	13.5651	-61.7979	-23.3353	21.6131	-22.0348	-38.7645	-24.9032	29.8258	-46.0348	
3.24667	36.7118	112.898	0.947449	-7.96583	-1.01282	-4.76231	-16.3738	-2.28068	17.8787	0.370666	12.6433	-1.66331	41.2752	-1.81947	3.22922	10.0025	4.85716	39.4431	-6.21131	-31.9512	0	-16.3659	26.2121	39.9968	11.9192	-59.629	-22.463	21.292	-22.1865	-38.0804	-21.9645	30.9033	-45.4867	
3.443	37.1337	114.747	1.78549	-7.03754	-0.759745	-6.01209	-13.8581	-2.521	17.4679	-0.693049	6.27352	-1.99613	48.5713	-2.54591	2.3001	9.17753	4.10873	39.4098	-6.44802	-32.4384	0	-16.3412	26.0856	38.6036	9.12053	-55.6568	-21.2777	21.0332	-22.3279	-37.6848	-19.3615	32.7544	-44.1611	
3.60954	37.5091	116.493	2.16244	-6.20341	-0.477642	-6.71433	-10.8852	-2.88924	15.8902	-1.20635	-0.797091	-1.90828	54.6594	-2.70886	1.79855	7.8635	3.3097	39.4146	-6.73042	-33.1004	0	-16.5523	25.7733	36.6589	5.28089	-51.2463	-20.1368	20.8072	-22.4153	-37.569	-17.0419	35.1616	-42.3428	
3.75433	37.8046	118.195	2.12354	-6.0108	-0.0272062	-6.92036	-7.33686	-2.96124	14.2292	-1.07663	-7.0059	-1.86761	57.8431	-2.4053	2.19761	6.27452	2.58455	39.1996	-6.91548	-33.622	0	-16.5555	25.2753	34.4551	0.732511	-49.3355	-19.5066	20.4656	-22.4078	-37.5338	-14.697	37.5714	-40.3108	
3.85961	38.0278	119.917	1.76983	-6.4059	0.47099	-6.64564	-3.21873	-2.45573	12.615	-0.519566	-11.8826	-1.9243	57.569	-1.78137	3.22006	4.62822	2.27493	38.7553	-7.09722	-33.7564	0	-16.3801	24.8194	32.437	-4.41497	-49.5968	-19.615	20.1505	-22.3778	-37.6256	-12.1254	39.5625	-38.0778	
3.94589	38.1798	121.676	1.24819	-7.01624	1.15884	-5.98169	1.30191	-0.542042	10.6933	0.129835	-15.3692	-2.04984	53.7188	-0.999838	4.32976	2.8269	2.73498	38.2701	-7.43259	-33.4806	0	-16.1736	24.5815	30.7927	-10.0444	-50.0256	-20.5354	20.0697	-22.2896	-38.102	-9.22424	41.1247	-35.6098	
3.99327	38.2243	123.469	0.908534	-7.44684	2.44579	-5.21333	5.53302	2.67072	9.10212	0.427184	-17.7542	-2.55523	46.46	-0.533169	5.06861	0.801184	3.96433	38.5402	-7.98018	-33.8963	0	-15.7159	24.2544	29.3237	-15.6663	-48.6828	-21.8477	20.4601	-22.2433	-38.9965	-5.9837	41.9905	-33.0238	
4.01195	38.1283	125.272	1.05349	-7.36231	4.44722	-4.63042	8.66596	5.88454	8.80949	-0.014211	-19.4025	-3.69032	36.3304	-0.76743	5.16087	-1.3881	5.81187	40.3648	-8.76312	-36.2355	0	-15.1438	23.7538	28.0022	-21.0702	-45.9336	-23.0925	21.3993	-22.489	-40.1919	-2.69894	42.0947	-30.4835	
3.9986	37.8981	127.091	1.52129	-6.80004	6.74755	-4.17243	10.7035	6.60386	9.93473	-0.933886	-20.3641	-4.4784	25.3769	-1.51882	4.69592	-3.43535	7.96619	42.9158	-9.77566	-39.7382	0	-14.6131	23.0599	26.9091	-26.1887	-43.6476	-24.6342	22.5805	-22.9354	-41.3898	0.610497	41.4181	-27.89	
3.95294	37.5175	128.943	2.00019	-6.35422	8.81707	-3.7379	12.223	4.23272	12.5312	-1.83181	-20.6151	-3.7116	16.1665	-2.34835	4.42884	-5.05808	10.0467	44.8769	-10.9759	-42.9664	0	-14.2373	22.4807	26.1205	-30.902	-41.9898	-27.1115	23.7029	-23.2238	-42.2333	3.94701	39.7423	-25.0989	
3.91582	36.9553	130.865	2.32101	-6.27883	10.5223	-3.33557	13.6106	0.103344	16.5143	-2.40756	-20.5511	-1.56095	9.99157	-2.90954	4.5449	-6.12987	11.6259	46.0128	-12.1113	-45.2828	0	-14.0324	22.1749	25.4516	-34.7625	-40.6483	-30.6385	24.4712	-23.3619	-42.6066	7.11951	37.1118	-22.23	
3.91159	36.1383	132.943	2.37759	-6.25527	11.937	-2.90475	15.0457	-4.06837	21.3364	-2.60939	-20.8115	2.4464	6.05821	-2.86738	4.52574	-6.57184	12.3085	46.5418	-12.8536	-46.4353	0	-14.1767	22.0818	25.1455	-37.2291	-39.5857	-35.0253	24.8589	-23.5881	-42.7856	9.79548	33.621	-19.5486	
3.89025	35.1563	135.057	1.81628	-6.17025	13.0311	-1.93548	16.756	-7.64618	25.6985	-2.12888	-21.2646	4.68798	4.47797	-2.051	4.26879	-6.59269	12.141	46.4065	-13.0278	-46.3766	0	-14.5468	22.2445	25.1174	-38.1521	-38.8392	-39.5062	24.8395	-23.8192	-42.9833	11.7382	30.4759	-17.5326	
3.86285	35.7962	137.109	0.604971	-6.76059	12.1068	-0.853328	14.5512	-7.14493	31.5238	-0.00862077	-20.7303	-1.05926	11.3303	-0.563239	3.83438	-6.52622	11.4037	45.4474	-12.5509	-45.1829	0	-14.9649	22.6916	25.4875	-37.4472	-37.7702	-43.1588	24.3128	-23.7076	-43.1712	13.0699	28.951	-16.7013	
3.83858	36.2816	139.286	-0.748306	-7.46984	11.0701	0.695773	11.3642	-4.72188	38.2504	2.15225	-19.2293	-2.90838	16.7878	1.14783	3.67972	-6.49394	10.5234	43.8421	-11.4875	-43.1487	0	-15.1726	23.1261	25.8807	-35.4034	-35.6068	-46.2681	23.5294	-23.4223	-43.2099	13.5114	29.2172	-16.9829	
3.80398	36.6188	141.377	-1.95873	-7.95434	10.5158	2.21088	7.46114	-2.99886	45.404	4.02231	-17.188	-3.6369	20.4912	2.49946	3.70236	-6.43839	9.97021	41.965	-10.0062	-40.7176	0	-15.117	23.4641	26.1116	-32.7095	-33.332	-49.654	22.8572	-23.2458	-43.033	12.7547	30.2963	-17.9842	
3.76582	36.9378	143.311	-2.76361	-8.13671	10.3325	3.1401	2.42041	-2.36181	52.3058	5.46733	-14.4418	-3.79584	21.7647	3.27464	3.90958	-6.09907	9.83665	40.3177	-8.51915	-38.653	0	-15.0154	23.7316	26.1713	-29.9167	-32.5412	-52.7902	22.5511	-23.1655	-42.6278	10.8454	31.3644	-19.348	
3.73744	37.2548	145.11	-3.04963	-8.30239	10.258	3.21008	-3.21902	-2.22346	57.821	6.43481	-10.9104	-3.69886	21.0697	3.43644	4.45678	-5.28149	9.99373	39.4453	-7.56456	-37.8309	0	-14.9566	24.0773	26.1759	-27.2978	-33.2817	-54.4051	22.4555	-22.9862	-41.758	8.14262	31.6059	-20.7531	
3.75594	37.5646	146.86	-2.80398	-8.59206	10.007	2.52737	-8.62208	-2.18641	60.8607	6.90557	-6.64304	-3.19488	19.1061	3.07532	5.27413	-3.85832	10.3999	39.5033	-7.42374	-38.1552	0	-14.9444	24.3513	26.3161	-24.8484	-35.1654	-54.108	22.3405	-22.7688	-40.7379	4.86315	31.8569	-22.0317	
3.82424	37.8197	148.618	-2.15008	-9.06341	9.55978	1.44038	-12.9225	-1.9786	60.4485	6.94301	-1.87444	-2.19932	16.636	2.35687	6.16371	-2.13248	11.0434	40.3578	-8.15732	-38.8772	0	-15.082	24.4523	26.992	-22.2528	-37.9818	-52.0825	22.1421	-22.4336	-39.6441	1.13425	31.5393	-23.1308	
3.92453	37.9786	150.389	-1.52211	-9.50631	8.5512	0.442919	-16.1176	-1.4068	56.5065	6.70193	2.9227	-1.78784	14.089	1.67927	6.79179	0.0641758	11.4875	41.4667	-9.15045	-39.1994	0	-15.1933	24.4063	27.8902	-19.1807	-41.0428	-48.2397	21.714	-22.0538	-38.5397	-2.89564	30.9901	-24.1859	
4.03197	38.0186	152.155	-1.31159	-9.44947	6.58936	0.0975406	-18.7931	-0.383796	49.6163	6.29396	7.031	-2.82895	11.8108	1.3778	6.73707	3.10687	11.0241	42.031	-9.35383	-38.3519	0	-15.5336	24.2643	29.1137	-15.6543	-44.6308	-42.3744	21.2921	-21.8966	-37.8466	-7.23296	31.2691	-25.459	
4.13646	37.9322	153.902	-1.49563	-9.1719	4.27367	0.409107	-20.8027	0.374846	40.3824	5.86288	10.5338	-5.22357	10.1996	1.52304	6.48812	6.16676	9.59339	41.8799	-8.65568	-36.4564	0	-16.156	24.3205	30.5858	-12.0251	-48.4571	-35.7443	21.059	-21.9333	-37.8056	-12.0069	32.4906	-27.0599	
4.28157	37.7195	155.68	-1.89805	-8.99335	2.5287	0.947546	-21.4593	-0.444223	29.4847	5.55456	13.8846	-8.00932	9.23641	2.0086	6.33762	7.81507	7.67283	41.3521	-7.70275	-34.3444	0	-16.908	24.8026	32.1534	-8.33907	-51.1556	-30.6811	20.9402	-21.5975	-38.046	-16.7875	33.6477	-28.9707	
4.4702	37.3626	157.499	-2.51417	-9.09305	0.87821	1.59457	-21.2241	-3.24727	18.8942	5.34827	17.0152	-8.86599	9.51544	2.84715	6.49529	8.60975	5.90147	40.746	-7.02051	-32.6701	0	-17.7742	25.7014	33.6977	-4.59695	-52.36	-27.4669	20.8234	-21.1439	-38.3544	-21.2064	34.3233	-31.1356	
4.69359	36.8273	159.412	-3.37153	-8.80012	-1.14873	2.61343	-21.5299	-8.51035	11.2141	5.11886	18.9991	-6.44225	11.8075	3.87264	6.30071	9.6118	5.0172	40.3073	-6.98436	-31.8911	0	-18.6274	26.4436	35.1868	-0.379123	-53.3148	-24.5937	20.8434	-21.1154	-38.6167	-25.052	34.3064	-33.4692	
4.91096	35.9015	161.683	-4.22032	-7.87677	-2.92255	4.19516	-22.5288	-18.1928	5.38084	4.83207	19.7519	-3.48977	17.0392	4.39072	5.40453	10.4746	5.07942	40.2068	-7.45989	-31.9937	0	-18.817	26.5859	36.5305	4.37349	-54.4614	-21.8101	20.8511	-21.4083	-38.5116	-27.8729	33.7763	-35.8964	
5.15794	34.6183	164.137	-4.44313	-7.00582	-4.17383	5.07897	-23.1176	-25.0945	1.43549	4.2866	20.802	0.229608	22.9111	3.98569	4.38261	10.4894	5.49442	40.5326	-7.83726	-32.5154	0	-18.2626	26.6314	37.6441	8.72913	-54.6398	-20.1223	20.8925	-21.4273	-38.3609	-29.1375	33.2601	-38.3484	
5.37092	35.3013	165.717	-3.28547	-7.28986	-3.65405	2.55967	-22.714	-14.9629	7.16066	3.41701	20.4668	3.11368	23.8083	2.767	3.90703	10.1458	6.0069	41.084	-7.95998	-33.1142	0	-17.4213	26.7741	38.6517	11.7728	-54.2028	-19.7368	21.2633	-21.3772	-38.6846	-28.9075	32.694	-40.6408	
5.60958	35.9345	167.56	-1.83926	-8.02845	-2.70451	0.23525	-21.3485	-8.99377	12.3447	2.34143	19.6156	3.79028	26.6599	1.02185	3.95908	9.84702	6.74692	41.3612	-8.17529	-33.6002	0	-16.674	26.7899	39.5828	13.1859	-53.9052	-19.9519	21.8858	-21.4995	-39.179	-27.4797	31.9186	-42.4679	
5.84151	36.4665	169.57	-0.393049	-8.43565	-1.73597	-1.713	-19.4677	-5.27859	16.3616	1.16796	17.8012	2.61411	32.1448	-0.868928	3.92161	9.63283	7.61711	41.1232	-8.6916	-33.8682	0	-15.9413	26.5561	40.0833	13.0972	-54.2138	-20.2643	22.3438	-21.7631	-39.3152	-25.2186	31.2791	-43.624	
6.07954	36.9339	171.493	0.913095	-8.35175	-1.16955	-3.42132	-17.1546	-3.91368	18.3273	0.00286478	13.9627	1.57731	39.0118	-2.54951	3.74648	9.40778	8.23205	40.4561	-9.51813	-33.909	0	-15.2843	26.4095	39.7382	11.5468	-54.7748	-20.46	22.3745	-21.9631	-38.8783	-22.6747	31.3773	-44.0308	
6.33341	37.3565	173.317	1.91442	-7.90051	-1.23028	-4.85708	-14.4332	-3.75958	18.381	-0.961183	8.19054	1.44677	46.458	-3.70362	3.4923	9.04657	8.32079	39.6353	-10.4313	-33.9076	0	-15.0193	26.4432	38.732	8.71674	-54.7871	-20.3912	22.1834	-22.0931	-38.3245	-20.292	32.3559	-43.6735	
6.57615	37.7434	175.038	2.44606	-7.45773	-1.32732	-5.80648	-11.2417	-3.72203	17.0653	-1.42638	1.77962	1.30388	52.898	-4.1452	3.50854	8.15222	7.78891	39.1515	-10.9266	-34.2869	0	-15.1677	26.3567	37.2821	4.84308	-53.5747	-19.9776	21.9534	-22.1469	-37.9481	-18.1136	33.9057	-42.6126	
6.7952	38.0806	176.693	2.50487	-7.20808	-0.854531	-6.18162	-7.60228	-3.29798	14.9137	-1.31191	-4.24987	0.627977	57.0047	-3.93445	3.90999	6.51104	6.84298	39.1966	-10.8174	-35.0842	0	-15.4105	25.8929	35.4177	0.281881	-51.8335	-19.2923	21.677	-22.0658	-37.8613	-15.8594	35.4934	-40.9773	
6.97575	38.3491	178.324	2.20569	-7.2385	-0.034525	-6.10906	-3.66779	-2.85361	12.6077	-0.857403	-9.38276	-0.371825	57.9298	-3.25967	4.57183	4.621	6.1006	39.5157	-10.3994	-35.7668	0	-15.6158	25.1635	33.5811	-4.94875	-51.2687	-18.6204	21.4802	-21.8988	-38.1629	-13.2847	36.8919	-38.9868	
